<?xml version="1.0" encoding="utf-8"?>
<!-- Generator: Adobe Illustrator 27.0.1, SVG Export Plug-In . SVG Version: 6.00 Build 0)  -->
<svg version="1.1" xmlns="http://www.w3.org/2000/svg" xmlns:xlink="http://www.w3.org/1999/xlink" x="0px" y="0px"
	 viewBox="0 0 1366 768" style="enable-background:new 0 0 1366 768;" xml:space="preserve">
<style type="text/css">
	.st0{fill:#FFD817;}
	.st1{fill:#A3F5CF;}
	.st2{fill:none;stroke:#44423B;stroke-width:3;stroke-linecap:round;stroke-miterlimit:10;}
	.st3{fill:#44423B;}
	.st4{fill:#FFFFFF;}
</style>
<g id="Layer_1">
	<g>
		<polygon class="st0" points="354.65,87.36 405.93,34.71 416.4,87.36 476.6,61.04 465.11,134.66 529.55,108.36 515.08,171.48 
			584.78,139.92 576.89,201.73 633.44,172.8 647.74,250 479.79,250 		"/>
		<polygon class="st0" points="354.65,87.36 338.2,24.85 296.29,82 256.26,24.85 249.38,97.85 		"/>
	</g>
	<path class="st1" d="M234.97,321.4c-83.07-17.53-74.51-115.64-52.6-153.86c67.07-117.04,187.47-104.3,241.97-28.93
		c106.52,147.29,288.89,108.45,318.25,102.58c230.14-46.03,258.54-0.97,294.58,28.93c61.81,51.29,96.87,115.27,106.52,168.33
		c13.15,72.33,10.19,256.35-52.6,282.74c-90.74,38.14-88.34-31.06-230.14-117.04c-70.6-42.81-212.97-44.13-268.28,0
		C504.9,674.16,482,733.97,433.55,740.91c-85.81,12.29-154.77-51.56-142.03-128.88c13.09-79.42,78.06-127.12,77.59-186.74
		C368.82,388.36,302.51,335.66,234.97,321.4z"/>
</g>
<g id="Layer_2">
	<path class="st2" d="M181.5,283.54c2.03,0.22,17.22,0.78,30.5-12.54"/>
	<circle class="st3" cx="273" cy="173" r="30"/>
	<circle class="st4" cx="269" cy="160" r="8"/>
</g>
</svg>
