<?xml version="1.0" encoding="utf-8"?>
<!-- Generator: Adobe Illustrator 27.0.1, SVG Export Plug-In . SVG Version: 6.00 Build 0)  -->
<svg version="1.1" xmlns="http://www.w3.org/2000/svg" xmlns:xlink="http://www.w3.org/1999/xlink" x="0px" y="0px"
	 viewBox="0 0 600 768" style="enable-background:new 0 0 600 768;" xml:space="preserve">
<style type="text/css">
	.st0{fill:#A3F5CF;}
	.st1{fill:none;stroke:#44423B;stroke-width:3;stroke-linecap:round;stroke-miterlimit:10;}
	.st2{fill:#44423B;}
	.st3{fill:#FFFFFF;}
</style>
<g id="Layer_1">
	<ellipse class="st0" cx="300" cy="384" rx="259.88" ry="327"/>
</g>
<g id="Layer_2">
	<path class="st1" d="M288,170.45c5.77,8.04,16.03,9.39,25,0"/>
	<circle class="st2" cx="376" cy="125" r="17"/>
	<circle class="st3" cx="372.22" cy="118.57" r="5.91"/>
	<path class="st3" d="M382,135.5l2.57-1.29c0.28,0.39,0.43,0.83,0.43,1.29c0,1.37-1.35,2.5-3,2.5c-1.46,0-2.72-0.89-2.96-2.09
		L382,135.5z"/>
	<circle class="st2" cx="229" cy="125" r="17"/>
	<circle class="st3" cx="225.22" cy="118.57" r="5.91"/>
	<path class="st3" d="M229,136c0,0,3-0.95,3-0.5c0,1.37-1.35,2.5-3,2.5c-1.46,0-2.72-0.89-2.96-2.09L229,136z"/>
</g>
</svg>
